<svg width="32" height="32" viewBox="0 0 32 32" fill="none" xmlns="http://www.w3.org/2000/svg">
<circle cx="16" cy="16" r="16" fill="#213147"/>
<path d="M7.68359 12.1675V20.1231C7.68359 20.6279 7.95318 21.0989 8.39608 21.3489L15.2899 25.3243C15.728 25.5791 16.272 25.5791 16.7101 25.3243L23.6087 21.3489C24.0468 21.0941 24.3212 20.6279 24.3212 20.1231V12.1675C24.3212 11.6627 24.0516 11.1916 23.6087 10.9369L16.7101 6.96144C16.272 6.70666 15.728 6.70666 15.2899 6.96144L8.39127 10.9369C7.958 11.1916 7.68359 11.6579 7.68359 12.1675Z" fill="#213147"/>
<path d="M17.5092 17.686L16.5223 20.3779C16.4934 20.45 16.4934 20.5365 16.5223 20.6086L18.212 25.2426L20.1714 24.113L17.8221 17.6811C17.7691 17.5369 17.5621 17.5369 17.5092 17.686Z" fill="#12AAFF"/>
<path d="M19.4781 13.1529C19.4252 13.0039 19.2182 13.0039 19.1604 13.1529L18.1735 15.8448C18.1446 15.9218 18.1446 16.0035 18.1735 16.0756L20.9465 23.6659L22.9058 22.5362L19.4781 13.1529Z" fill="#12AAFF"/>
<path d="M16.0024 7.25467C16.0505 7.25467 16.0987 7.26909 16.142 7.29312L23.6039 11.5954C23.6906 11.6435 23.7435 11.7348 23.7435 11.8358V20.4404C23.7435 20.5413 23.6906 20.6327 23.6039 20.6807L16.142 24.9878C16.0987 25.0119 16.0505 25.0263 16.0024 25.0263C15.9543 25.0263 15.9061 25.0119 15.8628 24.9878L8.40091 20.6855C8.31426 20.6375 8.2613 20.5461 8.2613 20.4452V11.8358C8.2613 11.7348 8.31426 11.6435 8.40091 11.5954L15.8628 7.29312C15.9061 7.26909 15.9543 7.25467 16.0024 7.25467ZM16.0024 6.00003C15.7376 6.00003 15.468 6.07214 15.2321 6.20673L7.77026 10.509C7.29848 10.783 7 11.2878 7 11.8358V20.4404C7 20.9884 7.29366 21.4979 7.77026 21.7719L15.2321 26.0742C15.468 26.2136 15.7328 26.2809 16.0024 26.2809C16.272 26.2809 16.5368 26.2088 16.7727 26.0742L24.2346 21.7719C24.7112 21.4979 25.0048 20.9932 25.0048 20.4404V11.8358C25.0048 11.2878 24.7112 10.7782 24.2346 10.5042L16.7727 6.20673C16.532 6.07214 16.2672 6.00003 16.0024 6.00003Z" fill="#9DCCED"/>
<path d="M11.068 23.6755L11.7564 21.8008L13.1333 22.9449L11.8479 24.1226L11.068 23.6755Z" fill="#213147"/>
<path d="M15.3718 11.2253H13.4799C13.3403 11.2253 13.2103 11.3118 13.1621 11.4464L9.10864 22.5507L11.068 23.6803L15.5355 11.4512C15.574 11.3406 15.4922 11.2253 15.3718 11.2253Z" fill="white"/>
<path d="M18.684 11.2253H16.792C16.6524 11.2253 16.5224 11.3118 16.4743 11.4464L11.8479 24.1226L13.8072 25.2522L18.8428 11.4512C18.8861 11.3406 18.7995 11.2253 18.684 11.2253Z" fill="white"/>
</svg>
