<svg width="34" height="34" viewBox="0 0 34 34" fill="none" xmlns="http://www.w3.org/2000/svg">
<circle cx="17" cy="16.9971" r="16" stroke="#94A3B8" stroke-dasharray="2 2"/>
<g clip-path="url(#clip0_2391_721)">
<path d="M8.68359 13.1645V21.1202C8.68359 21.6249 8.95318 22.096 9.39608 22.346L16.2899 26.3214C16.728 26.5761 17.272 26.5761 17.7101 26.3214L24.6087 22.346C25.0468 22.0912 25.3212 21.6249 25.3212 21.1202V13.1645C25.3212 12.6598 25.0516 12.1887 24.6087 11.9339L17.7101 7.95847C17.272 7.7037 16.728 7.7037 16.2899 7.95847L9.39127 11.9339C8.958 12.1887 8.68359 12.655 8.68359 13.1645Z" fill="#213147"/>
<path d="M18.5092 18.683L17.5223 21.3749C17.4934 21.447 17.4934 21.5336 17.5223 21.6057L19.212 26.2397L21.1714 25.11L18.8221 18.6782C18.7691 18.534 18.5621 18.534 18.5092 18.683Z" fill="#12AAFF"/>
<path d="M20.4781 14.1499C20.4252 14.0009 20.2182 14.0009 20.1604 14.1499L19.1735 16.8419C19.1446 16.9188 19.1446 17.0005 19.1735 17.0726L21.9465 24.6629L23.9058 23.5333L20.4781 14.1499Z" fill="#12AAFF"/>
<path d="M17.0024 8.25171C17.0505 8.25171 17.0987 8.26613 17.142 8.29016L24.6039 12.5925C24.6906 12.6405 24.7435 12.7319 24.7435 12.8328V21.4374C24.7435 21.5384 24.6906 21.6297 24.6039 21.6778L17.142 25.9849C17.0987 26.0089 17.0505 26.0233 17.0024 26.0233C16.9543 26.0233 16.9061 26.0089 16.8628 25.9849L9.40091 21.6826C9.31426 21.6345 9.2613 21.5432 9.2613 21.4422V12.8328C9.2613 12.7319 9.31426 12.6405 9.40091 12.5925L16.8628 8.29016C16.9061 8.26613 16.9543 8.25171 17.0024 8.25171ZM17.0024 6.99707C16.7376 6.99707 16.468 7.06918 16.2321 7.20377L8.77026 11.5061C8.29848 11.7801 8 12.2848 8 12.8328V21.4374C8 21.9854 8.29366 22.495 8.77026 22.769L16.2321 27.0713C16.468 27.2107 16.7328 27.278 17.0024 27.278C17.272 27.278 17.5368 27.2059 17.7727 27.0713L25.2346 22.769C25.7112 22.495 26.0048 21.9902 26.0048 21.4374V12.8328C26.0048 12.2848 25.7112 11.7753 25.2346 11.5013L17.7727 7.20377C17.532 7.06918 17.2672 6.99707 17.0024 6.99707Z" fill="#9DCCED"/>
<path d="M12.068 24.6726L12.7564 22.7978L14.1333 23.9419L12.8479 25.1196L12.068 24.6726Z" fill="#213147"/>
<path d="M16.3718 12.2223H14.4799C14.3403 12.2223 14.2103 12.3088 14.1621 12.4434L10.1086 23.5477L12.068 24.6774L16.5355 12.4483C16.574 12.3377 16.4922 12.2223 16.3718 12.2223Z" fill="white"/>
<path d="M19.684 12.2223H17.792C17.6524 12.2223 17.5224 12.3088 17.4743 12.4434L12.8479 25.1196L14.8072 26.2493L19.8428 12.4483C19.8861 12.3377 19.7995 12.2223 19.684 12.2223Z" fill="white"/>
</g>
<defs>
<clipPath id="clip0_2391_721">
<rect width="18" height="20.2857" fill="white" transform="translate(8 6.99707)"/>
</clipPath>
</defs>
</svg>
