<svg width="34" height="34" viewBox="0 0 34 34" fill="none" xmlns="http://www.w3.org/2000/svg">
<circle cx="17" cy="17.0029" r="16" stroke="#94A3B8" stroke-dasharray="2 2"/>
<path d="M11.6664 10.0861L17 7.00293L22.3336 10.0861L20.3336 11.1693L17 9.25253L13.5832 11.1693L11.6664 10.0861ZM22.2496 13.9197L20.3328 12.8365L17 14.7533L13.5832 12.8365L11.6664 13.9197V16.1701L15 18.0869V22.0037L16.9168 23.1701L18.8336 22.0037V18.1701L22.1672 16.2533V13.9197H22.2496ZM22.2496 20.0861V17.8365L20.3336 19.0029V21.1693L22.2496 20.0861ZM23.6664 20.8365L20.3328 22.7533V25.0029L25.6664 21.9197V15.7533L23.6664 17.0029V20.8365ZM21.7504 12.0029L23.6672 13.1693V15.4197L25.584 14.2533V12.0029L23.6672 10.8365L21.7504 12.0029ZM15 23.5861V25.8357L16.9168 27.0021L18.8336 25.8357V23.5861L16.9168 24.7525L15 23.5861ZM11.6664 20.0861L13.5832 21.1693V18.9197L11.6664 17.7533V20.0861ZM15 12.0029L16.9168 13.1693L18.9168 12.0029L17 10.8365L15 12.0029ZM10.2496 13.1693L12.2496 12.0029L10.2496 10.8365L8.33356 12.0029V14.2525L10.2504 15.4189V13.1693H10.2496ZM10.2496 17.0029L8.33276 15.8365V22.0029L13.6664 25.0861V22.8365L10.3328 20.9197V17.0029H10.2496Z" fill="#F0B90B"/>
</svg>
