<svg width="32" height="32" viewBox="0 0 32 32" fill="none" xmlns="http://www.w3.org/2000/svg">
<circle cx="16" cy="16" r="16" fill="#8247E5"/>
<path d="M20.4676 13.0696C20.1545 12.8906 19.7518 12.8906 19.3938 13.0696L16.8883 14.5461L15.1881 15.4856L12.7273 16.9621C12.4141 17.1411 12.0115 17.1411 11.6535 16.9621L9.72964 15.7988C9.41645 15.6199 9.19274 15.2619 9.19274 14.8592V12.6222C9.19274 12.2642 9.3717 11.9063 9.72964 11.6826L11.6535 10.564C11.9667 10.3851 12.3694 10.3851 12.7273 10.564L14.6512 11.7273C14.9644 11.9063 15.1881 12.2642 15.1881 12.6669V14.1434L16.8883 13.1591V11.6378C16.8883 11.2799 16.7093 10.922 16.3514 10.6983L12.7721 8.59541C12.4589 8.41644 12.0562 8.41644 11.6983 8.59541L8.02945 10.743C7.67152 10.922 7.49255 11.2799 7.49255 11.6378V15.8436C7.49255 16.2015 7.67152 16.5594 8.02945 16.7831L11.6535 18.886C11.9667 19.065 12.3694 19.065 12.7273 18.886L15.1881 17.4543L16.8883 16.4699L19.3491 15.0382C19.6623 14.8592 20.065 14.8592 20.4229 15.0382L22.3468 16.1568C22.66 16.3357 22.8837 16.6937 22.8837 17.0963V19.3334C22.8837 19.6913 22.7047 20.0493 22.3468 20.273L20.4676 21.3915C20.1545 21.5705 19.7518 21.5705 19.3938 21.3915L17.47 20.273C17.1568 20.094 16.9331 19.7361 16.9331 19.3334V17.9017L15.2329 18.886V20.3625C15.2329 20.7204 15.4118 21.0783 15.7698 21.302L19.3938 23.4049C19.707 23.5839 20.1097 23.5839 20.4676 23.4049L24.0917 21.302C24.4049 21.1231 24.6286 20.7651 24.6286 20.3625V16.112C24.6286 15.7541 24.4497 15.3961 24.0917 15.1724L20.4676 13.0696Z" fill="white"/>
</svg>
