<svg width="34" height="34" viewBox="0 0 34 34" fill="none" xmlns="http://www.w3.org/2000/svg">
<circle cx="17" cy="17" r="16" stroke="#94A3B8" stroke-dasharray="2 2"/>
<path d="M21.9865 13.7228C21.6363 13.5227 21.1859 13.5227 20.7856 13.7228L17.9837 15.374L16.0823 16.4248L13.3304 18.0759C12.9801 18.2761 12.5298 18.2761 12.1295 18.0759L9.97797 16.775C9.62772 16.5749 9.37755 16.1746 9.37755 15.7243V13.2225C9.37755 12.8222 9.57769 12.4219 9.97797 12.1717L12.1295 10.9209C12.4797 10.7207 12.9301 10.7207 13.3304 10.9209L15.4819 12.2218C15.8321 12.4219 16.0823 12.8222 16.0823 13.2725V14.9237L17.9837 13.8229V12.1217C17.9837 11.7214 17.7835 11.3211 17.3832 11.071L13.3804 8.71929C13.0301 8.51915 12.5798 8.51915 12.1795 8.71929L8.07662 11.121C7.67634 11.3211 7.4762 11.7214 7.4762 12.1217V16.825C7.4762 17.2253 7.67634 17.6256 8.07662 17.8758L12.1295 20.2275C12.4797 20.4276 12.9301 20.4276 13.3304 20.2275L16.0823 18.6263L17.9837 17.5255L20.7356 15.9244C21.0859 15.7243 21.5362 15.7243 21.9365 15.9244L24.088 17.1753C24.4382 17.3754 24.6884 17.7757 24.6884 18.226V20.7278C24.6884 21.1281 24.4883 21.5284 24.088 21.7786L21.9865 23.0295C21.6363 23.2296 21.1859 23.2296 20.7856 23.0295L18.6341 21.7786C18.2839 21.5784 18.0337 21.1781 18.0337 20.7278V19.1267L16.1323 20.2275V21.8786C16.1323 22.2789 16.3325 22.6792 16.7328 22.9294L20.7856 25.2811C21.1359 25.4812 21.5862 25.4812 21.9865 25.2811L26.0394 22.9294C26.3896 22.7292 26.6398 22.329 26.6398 21.8786V17.1253C26.6398 16.725 26.4397 16.3247 26.0394 16.0745L21.9865 13.7228Z" fill="#8247E5"/>
</svg>
