<svg width="34" height="34" viewBox="0 0 34 34" fill="none" xmlns="http://www.w3.org/2000/svg">
<circle cx="17" cy="17" r="16" stroke="#94A3B8" stroke-dasharray="2 2"/>
<path d="M24.9176 21.2559L22.2763 24.0461C22.2189 24.1067 22.1494 24.1551 22.0722 24.1881C21.995 24.2211 21.9118 24.2381 21.8276 24.2381H9.30663C9.24689 24.2381 9.18845 24.2209 9.13849 24.1886C9.08853 24.1564 9.04923 24.1104 9.02541 24.0564C9.0016 24.0025 8.99431 23.9428 9.00444 23.8848C9.01457 23.8268 9.04168 23.773 9.08244 23.73L11.7257 20.9398C11.783 20.8794 11.8522 20.8311 11.9292 20.7981C12.0061 20.7651 12.0891 20.748 12.1731 20.7478H24.6934C24.7531 20.7478 24.8116 20.765 24.8615 20.7973C24.9114 20.8296 24.9507 20.8755 24.9747 20.9295C24.9984 20.9835 25.0057 21.0431 24.9956 21.1011C24.9854 21.1591 24.9583 21.2129 24.9176 21.2559ZM22.2763 15.6373C22.2189 15.5767 22.1494 15.5284 22.0722 15.4953C21.995 15.4623 21.9118 15.4453 21.8276 15.4454H9.30663C9.24689 15.4454 9.18845 15.4625 9.13849 15.4948C9.08853 15.5271 9.04923 15.573 9.02541 15.627C9.0016 15.681 8.99431 15.7406 9.00444 15.7986C9.01457 15.8566 9.04168 15.9104 9.08244 15.9535L11.7257 18.7436C11.783 18.8041 11.8522 18.8523 11.9292 18.8853C12.0061 18.9183 12.0891 18.9355 12.1731 18.9356H24.6934C24.7531 18.9356 24.8116 18.9184 24.8615 18.8861C24.9114 18.8539 24.9507 18.8079 24.9747 18.754C24.9984 18.7 25.0057 18.6403 24.9956 18.5823C24.9854 18.5243 24.9583 18.4705 24.9176 18.4275L22.2763 15.6373ZM9.30663 13.6331H21.8276C21.9118 13.6331 21.995 13.6161 22.0722 13.5831C22.1494 13.5501 22.2189 13.5017 22.2763 13.4411L24.9176 10.651C24.9583 10.6079 24.9854 10.5541 24.9956 10.4961C25.0057 10.4381 24.9984 10.3785 24.9747 10.3245C24.9507 10.2705 24.9114 10.2246 24.8615 10.1923C24.8116 10.16 24.7531 10.1429 24.6934 10.1429H12.1731C12.0891 10.143 12.0061 10.1601 11.9292 10.1931C11.8522 10.2261 11.783 10.2744 11.7257 10.3348L9.08312 13.125C9.0424 13.168 9.01531 13.2217 9.00515 13.2797C8.995 13.3376 9.00223 13.3972 9.02596 13.4511C9.04969 13.5051 9.08888 13.551 9.13874 13.5834C9.1886 13.6157 9.24695 13.633 9.30663 13.6331Z" fill="url(#paint0_linear_2391_568)"/>
<defs>
<linearGradient id="paint0_linear_2391_568" x1="10.3506" y1="24.574" x2="23.2592" y2="9.80064" gradientUnits="userSpaceOnUse">
<stop offset="0.08" stop-color="#9945FF"/>
<stop offset="0.3" stop-color="#8752F3"/>
<stop offset="0.5" stop-color="#5497D5"/>
<stop offset="0.6" stop-color="#43B4CA"/>
<stop offset="0.72" stop-color="#28E0B9"/>
<stop offset="0.97" stop-color="#19FB9B"/>
</linearGradient>
</defs>
</svg>
