<svg width="34" height="34" viewBox="0 0 34 34" fill="none" xmlns="http://www.w3.org/2000/svg">
<ellipse cx="17.0031" cy="17.0062" rx="16.0034" ry="16.0033" stroke="#94A3B8" stroke-dasharray="2 2"/>
<path d="M7 17C7 11.4772 11.4772 7 17 7C22.5228 7 27 11.4772 27 17C27 22.5228 22.5228 27 17 27C11.4772 27 7 22.5228 7 17Z" fill="white"/>
<path d="M20.4758 12.8234L10.125 11.3745L15.9061 25.6257L23.875 15.4681L20.4758 12.8234ZM21.9478 15.2823L18.5838 15.9991L20.3334 14.0264L21.9473 15.2823H21.9478ZM19.24 13.6955L17.0807 16.1301L12.7918 12.7933L19.24 13.696V13.6955ZM15.8061 22.6161L12.1523 13.6089L16.5903 17.062L15.8065 22.6161H15.8061ZM16.8355 22.7598L17.6112 17.2644L21.8563 16.36L16.8359 22.7598H16.8355Z" fill="#EA0029"/>
</svg>
