<svg width="32" height="32" viewBox="0 0 32 32" fill="none" xmlns="http://www.w3.org/2000/svg">
<path d="M0 16.0029C0 7.16637 7.16344 0.00292969 16 0.00292969C24.8366 0.00292969 32 7.16637 32 16.0029C32 24.8395 24.8366 32.0029 16 32.0029C7.16344 32.0029 0 24.8395 0 16.0029Z" fill="#EA0029"/>
<path d="M21.5613 8.34132L5 6.00293L14.2498 29.0029L27 12.6095L21.5613 8.34132ZM23.9165 12.3096L18.534 13.4665L21.3334 10.2827L23.9158 12.3096H23.9165ZM19.584 9.74885L16.1291 13.678L9.26688 8.29279L19.584 9.74958V9.74885ZM14.0897 24.1458L8.24361 9.60904L15.3445 15.1819L14.0905 24.1458H14.0897ZM15.7368 24.3776L16.9778 15.5086L23.7701 14.0489L15.7375 24.3776H15.7368Z" fill="white"/>
</svg>
